<svg xmlns="http://www.w3.org/2000/svg" xmlns:xlink="http://www.w3.org/1999/xlink" width="500" zoomAndPan="magnify" viewBox="0 0 375 374.999991" height="500" preserveAspectRatio="xMidYMid meet" version="1.0"><defs><g/><clipPath id="id1"><path d="M 17 127 L 110.238281 127 L 110.238281 248 L 17 248 Z M 17 127 " clip-rule="nonzero"/></clipPath><clipPath id="id2"><path d="M 204.03125 140.867188 L 241.53125 140.867188 L 241.53125 178.367188 L 204.03125 178.367188 Z M 204.03125 140.867188 " clip-rule="nonzero"/></clipPath><clipPath id="id3"><path d="M 188.714844 184.570312 L 198.464844 184.570312 L 198.464844 194.320312 L 188.714844 194.320312 Z M 188.714844 184.570312 " clip-rule="nonzero"/></clipPath><clipPath id="id4"><path d="M 245.050781 184.570312 L 254.800781 184.570312 L 254.800781 194.320312 L 245.050781 194.320312 Z M 245.050781 184.570312 " clip-rule="nonzero"/></clipPath></defs><g clip-path="url(#id1)"><path fill="#000000" d="M 96.871094 193.984375 C 96.671875 194.539062 96.203125 195.085938 95.636719 195.410156 C 94.65625 195.960938 93.589844 196.183594 92.476562 196.429688 C 92.605469 197.605469 92.78125 198.898438 92.859375 200.273438 C 92.933594 201.878906 92.953125 203.625 92.34375 205.449219 C 92.191406 205.789062 92.089844 206.132812 91.867188 206.441406 C 91.773438 206.609375 91.679688 206.769531 91.5625 206.921875 L 91.171875 207.351562 C 90.945312 207.648438 90.503906 207.859375 90.160156 208.078125 C 89.980469 208.171875 89.859375 208.179688 89.699219 208.246094 L 89.488281 208.3125 L 89.324219 208.371094 L 89.257812 208.390625 L 89.25 208.390625 L 89.234375 208.398438 L 89.191406 208.398438 C 88.480469 208.585938 87.617188 208.507812 86.945312 208.152344 C 86.261719 207.796875 85.792969 207.25 85.457031 206.734375 C 84.761719 205.664062 84.453125 204.582031 84.210938 203.578125 C 83.984375 202.570312 83.855469 201.632812 83.777344 200.78125 C 83.484375 197.359375 83.863281 195.242188 84.070312 195.265625 C 84.289062 195.28125 84.320312 197.359375 84.882812 200.636719 C 85.035156 201.445312 85.210938 202.328125 85.480469 203.25 C 85.746094 204.152344 86.101562 205.121094 86.652344 205.90625 C 87.226562 206.71875 87.9375 207.140625 88.835938 206.894531 C 88.972656 206.847656 89.402344 206.71875 89.597656 206.609375 C 89.734375 206.453125 89.90625 206.441406 90.066406 206.226562 L 90.308594 205.964844 L 90.515625 205.636719 C 90.667969 205.4375 90.742188 205.15625 90.851562 204.910156 C 91.332031 203.484375 91.378906 201.851562 91.332031 200.335938 C 91.285156 198.804688 91.117188 197.367188 91.039062 195.933594 L 91.011719 195.320312 L 91.59375 195.214844 C 92.953125 194.980469 94.226562 194.832031 95.085938 194.429688 C 95.511719 194.21875 95.789062 193.949219 95.976562 193.601562 C 96.144531 193.246094 96.222656 192.839844 96.261719 192.464844 C 96.382812 190.933594 96.230469 189.964844 96.410156 189.945312 C 96.53125 189.945312 96.945312 190.792969 97.066406 192.496094 C 97.078125 192.925781 97.058594 193.433594 96.871094 193.984375 Z M 66.917969 233.421875 C 66.722656 234.25 66.554688 235.265625 65.640625 236.183594 L 65.632812 236.195312 L 65.597656 236.226562 C 64.828125 236.835938 63.835938 236.84375 63.113281 236.824219 C 62.371094 236.789062 61.742188 236.796875 61.492188 237.03125 C 61.371094 237.191406 61.246094 237.390625 61.171875 237.6875 C 60.910156 238.683594 60.984375 239.984375 60.617188 241.242188 C 60.429688 241.878906 60.058594 242.535156 59.5 242.972656 C 58.960938 243.429688 58.332031 243.394531 57.789062 243.503906 L 57.761719 243.335938 L 57.738281 243.335938 C 56.628906 243.335938 55.90625 243.066406 55.304688 242.695312 C 54.714844 242.304688 54.28125 241.960938 53.945312 241.605469 C 53.273438 240.863281 53.054688 240.40625 53.140625 240.320312 C 53.242188 240.21875 53.691406 240.59375 54.445312 241.089844 C 54.828125 241.34375 55.285156 241.671875 55.839844 241.925781 C 56.375 242.179688 57.039062 242.441406 57.585938 242.355469 C 58.398438 242.160156 58.933594 241.738281 59.167969 240.828125 C 59.421875 239.890625 59.296875 238.703125 59.644531 237.265625 C 59.765625 236.808594 60.007812 236.308594 60.394531 235.886719 L 60.414062 235.878906 L 60.441406 235.847656 C 60.910156 235.441406 61.5 235.304688 61.957031 235.273438 C 62.429688 235.238281 62.820312 235.285156 63.175781 235.304688 C 63.886719 235.359375 64.394531 235.324219 64.734375 235.105469 C 65.257812 234.664062 65.558594 233.835938 65.78125 233.152344 C 66.019531 232.441406 66.132812 231.75 66.242188 231.199219 C 66.445312 230.070312 66.570312 229.402344 66.730469 229.402344 C 66.878906 229.402344 67.046875 230.070312 67.078125 231.261719 C 67.085938 231.867188 67.078125 232.585938 66.917969 233.421875 Z M 50.703125 230.042969 L 50.363281 229.816406 L 50.28125 229.757812 L 50.269531 229.75 L 50.246094 229.742188 L 50.09375 229.65625 C 49.675781 229.421875 49.21875 229.242188 48.761719 229.089844 C 47.847656 228.820312 46.871094 228.8125 46.035156 229.179688 C 45.210938 229.519531 44.535156 230.269531 44.066406 231.246094 C 43.917969 231.6875 43.789062 232.34375 43.671875 232.992188 C 43.542969 233.675781 43.410156 234.402344 43.265625 235.152344 C 43.101562 235.90625 42.917969 236.675781 42.644531 237.484375 C 42.371094 238.28125 42.035156 239.128906 41.34375 239.992188 C 40.902344 240.535156 40.214844 241.089844 39.351562 241.316406 C 38.503906 241.539062 37.675781 241.417969 37.039062 241.203125 C 36.402344 240.96875 35.886719 240.703125 35.390625 240.355469 C 35.117188 240.171875 34.949219 240.027344 34.769531 239.890625 C 34.621094 239.796875 34.296875 239.492188 34.066406 239.242188 C 33.804688 239.003906 33.609375 238.675781 33.433594 238.335938 C 33.238281 238.007812 33.179688 237.671875 33.066406 237.332031 C 32.949219 236.742188 32.933594 236.167969 32.898438 235.921875 C 32.867188 235.6875 32.859375 235.847656 32.925781 235.800781 C 32.925781 235.761719 32.832031 235.632812 32.78125 235.550781 L 32.730469 235.464844 L 32.71875 235.441406 C 32.625 235.378906 32.597656 235.296875 32.492188 235.21875 C 32.371094 235.144531 32.289062 235.058594 32.148438 234.976562 C 31.613281 234.644531 30.804688 234.382812 29.953125 233.914062 C 29.578125 233.726562 28.808594 233.152344 28.679688 232.949219 L 28.484375 232.730469 L 28.453125 232.703125 L 28.300781 232.523438 L 28.292969 232.503906 L 28.230469 232.390625 L 28.105469 232.175781 C 27.976562 231.910156 27.882812 231.65625 27.816406 231.429688 C 27.5625 230.523438 27.496094 229.78125 27.421875 229.054688 C 27.367188 228.371094 27.300781 227.703125 27.242188 227.0625 C 27.132812 225.84375 26.953125 224.765625 26.625 224.074219 C 26.460938 223.738281 26.277344 223.53125 26.074219 223.40625 C 25.859375 223.289062 25.566406 223.253906 25.277344 223.261719 C 24.066406 223.390625 23.269531 223.84375 23.148438 223.609375 C 23.09375 223.515625 23.203125 223.316406 23.464844 223.035156 C 23.761719 222.753906 24.21875 222.339844 25.015625 222.046875 C 25.425781 221.925781 25.953125 221.820312 26.570312 221.980469 C 27.1875 222.140625 27.75 222.601562 28.113281 223.128906 C 28.859375 224.191406 29.164062 225.421875 29.460938 226.71875 C 29.578125 227.355469 29.707031 228.023438 29.84375 228.707031 C 29.976562 229.375 30.113281 230.078125 30.308594 230.609375 C 30.347656 230.726562 30.394531 230.8125 30.441406 230.878906 L 30.609375 231.039062 L 30.816406 231.246094 C 30.871094 231.285156 30.910156 231.273438 30.949219 231.300781 C 31.042969 231.328125 31.058594 231.367188 31.246094 231.445312 C 31.808594 231.722656 32.597656 231.929688 33.550781 232.417969 C 33.785156 232.542969 34.042969 232.710938 34.273438 232.871094 C 34.515625 233.039062 34.761719 233.304688 34.988281 233.53125 L 35.074219 233.613281 L 35.089844 233.640625 L 35.109375 233.648438 L 35.195312 233.769531 L 35.210938 233.808594 L 35.304688 233.953125 C 35.371094 234.054688 35.417969 234.101562 35.492188 234.25 C 35.679688 234.636719 35.855469 235.203125 35.871094 235.40625 C 35.972656 236.039062 35.992188 236.367188 36.058594 236.65625 C 36.148438 236.875 36.167969 236.996094 36.335938 237.136719 C 36.429688 237.210938 36.421875 237.25 36.664062 237.417969 C 36.851562 237.558594 37.039062 237.695312 37.160156 237.773438 C 37.433594 237.964844 37.769531 238.109375 38.03125 238.207031 C 38.296875 238.292969 38.453125 238.28125 38.53125 238.261719 C 38.613281 238.234375 38.734375 238.175781 38.914062 237.972656 C 39.175781 237.632812 39.457031 237.070312 39.664062 236.460938 C 39.878906 235.839844 40.046875 235.160156 40.207031 234.484375 C 40.359375 233.769531 40.507812 233.078125 40.65625 232.390625 C 40.816406 231.667969 40.945312 230.972656 41.277344 230.109375 L 41.292969 230.050781 L 41.324219 230.003906 C 42.070312 228.472656 43.382812 227.105469 45.027344 226.539062 C 46.65625 225.957031 48.3125 226.160156 49.609375 226.667969 C 50.253906 226.933594 50.855469 227.242188 51.359375 227.609375 L 51.558594 227.738281 L 51.613281 227.769531 L 51.675781 227.824219 L 51.699219 227.832031 L 51.769531 227.898438 L 52.089844 228.164062 C 52.324219 228.378906 52.585938 228.625 52.757812 228.8125 C 53.503906 229.613281 54.078125 230.34375 54.628906 230.820312 C 55.179688 231.3125 55.613281 231.507812 56.054688 231.480469 C 56.503906 231.421875 56.984375 231.199219 57.320312 230.9375 C 57.695312 230.703125 57.96875 230.457031 58.171875 230.324219 C 58.390625 230.183594 58.535156 230.136719 58.613281 230.183594 C 58.679688 230.230469 58.679688 230.382812 58.585938 230.632812 C 58.492188 230.886719 58.351562 231.246094 58.023438 231.65625 C 57.882812 231.875 57.675781 232.089844 57.414062 232.316406 C 57.289062 232.441406 57.152344 232.542969 56.964844 232.636719 C 56.789062 232.730469 56.617188 232.863281 56.382812 232.898438 C 55.953125 233.039062 55.410156 233.085938 54.910156 232.957031 C 54.386719 232.847656 53.945312 232.597656 53.515625 232.332031 C 52.664062 231.78125 51.960938 231.074219 51.207031 230.449219 C 51.011719 230.277344 50.871094 230.183594 50.703125 230.042969 Z M 44.863281 169.644531 C 44.40625 169.945312 43.804688 170.292969 42.953125 170.445312 C 42.851562 170.453125 42.738281 170.472656 42.621094 170.480469 C 42.511719 170.480469 42.390625 170.472656 42.269531 170.460938 C 42.027344 170.472656 41.78125 170.386719 41.527344 170.300781 C 41.046875 170.097656 40.574219 169.761719 40.265625 169.304688 C 39.582031 168.445312 39.242188 167.371094 38.945312 166.253906 C 38.648438 165.132812 38.453125 163.933594 38.257812 162.691406 C 38.0625 161.453125 37.871094 160.160156 37.546875 158.898438 C 37.378906 158.277344 37.167969 157.660156 36.878906 157.167969 C 36.75 156.941406 36.539062 156.691406 36.429688 156.625 C 36.402344 156.605469 36.402344 156.578125 36.34375 156.539062 L 36.101562 156.4375 L 36.015625 156.410156 L 36 156.398438 L 35.953125 156.390625 C 35.886719 156.378906 35.820312 156.351562 35.761719 156.351562 C 35.523438 156.316406 35.429688 156.351562 35.34375 156.410156 C 35.261719 156.460938 35.128906 156.671875 35.03125 156.941406 C 34.847656 157.480469 34.734375 158.175781 34.574219 158.867188 C 34.40625 159.566406 34.210938 160.316406 33.710938 161.011719 C 33.457031 161.359375 33.113281 161.671875 32.71875 161.867188 C 32.304688 162.050781 31.925781 162.160156 31.484375 162.175781 C 31.253906 162.195312 31.15625 162.167969 30.976562 162.167969 C 30.710938 162.136719 30.570312 162.121094 30.359375 162.0625 C 29.976562 161.96875 29.605469 161.753906 29.296875 161.511719 C 28.699219 160.992188 28.378906 160.335938 28.199219 159.746094 C 27.84375 158.53125 27.835938 157.441406 27.867188 156.453125 C 27.945312 154.5 28.25 152.980469 28.453125 151.933594 C 28.679688 150.894531 28.828125 150.328125 28.933594 150.328125 C 29.046875 150.328125 29.101562 150.9375 29.0625 152.011719 C 29.046875 153.074219 28.925781 154.605469 28.980469 156.453125 C 29.027344 157.375 29.113281 158.394531 29.4375 159.320312 C 29.605469 159.78125 29.859375 160.175781 30.179688 160.429688 C 30.339844 160.539062 30.507812 160.632812 30.722656 160.683594 C 30.804688 160.710938 30.96875 160.710938 31.003906 160.71875 C 31.144531 160.71875 31.359375 160.742188 31.433594 160.710938 C 31.867188 160.664062 32.238281 160.503906 32.484375 160.117188 C 32.746094 159.746094 32.925781 159.160156 33.058594 158.53125 C 33.203125 157.894531 33.289062 157.195312 33.550781 156.410156 C 33.703125 156.011719 33.890625 155.554688 34.371094 155.160156 C 34.863281 154.761719 35.539062 154.695312 36 154.78125 C 36.132812 154.789062 36.226562 154.828125 36.34375 154.855469 L 36.429688 154.875 L 36.464844 154.886719 L 36.488281 154.898438 L 36.496094 154.898438 L 36.582031 154.925781 L 36.703125 154.972656 L 36.953125 155.074219 C 37.058594 155.128906 37.191406 155.226562 37.3125 155.300781 C 37.785156 155.648438 37.996094 155.996094 38.234375 156.359375 C 38.660156 157.09375 38.867188 157.820312 39.046875 158.511719 C 39.382812 159.914062 39.53125 161.238281 39.699219 162.488281 C 39.859375 163.726562 40.011719 164.898438 40.222656 165.960938 C 40.445312 167.007812 40.707031 167.980469 41.164062 168.648438 C 42.019531 170.085938 43.703125 169.484375 44.585938 169.101562 C 45.527344 168.695312 46.035156 168.386719 46.109375 168.488281 C 46.167969 168.5625 45.792969 169.042969 44.863281 169.644531 Z M 87.039062 134.671875 C 87.261719 134.671875 87.449219 135.550781 87.855469 136.902344 C 88.257812 138.21875 88.855469 140.164062 90.046875 141.707031 C 90.347656 142.070312 90.675781 142.363281 90.984375 142.492188 C 91.285156 142.636719 91.554688 142.644531 91.859375 142.542969 C 92.476562 142.308594 93.054688 141.6875 93.46875 141.160156 C 94.300781 140.0625 94.789062 139.273438 95.003906 139.367188 C 95.183594 139.453125 95.078125 140.371094 94.40625 141.761719 C 94.039062 142.425781 93.5625 143.300781 92.417969 143.886719 C 91.859375 144.175781 91.03125 144.214844 90.375 143.929688 C 89.71875 143.660156 89.222656 143.199219 88.828125 142.710938 C 88.042969 141.722656 87.601562 140.675781 87.285156 139.714844 C 86.980469 138.757812 86.824219 137.863281 86.746094 137.113281 C 86.617188 135.601562 86.832031 134.671875 87.039062 134.671875 Z M 109.773438 206.980469 C 109.347656 202.292969 107.507812 198.617188 105.453125 194.472656 C 98.828125 181.097656 82.027344 179.203125 69.222656 175.347656 C 63.488281 173.621094 43.96875 167.652344 49.785156 157.929688 C 56.8125 146.199219 72.117188 151.925781 82.824219 152.988281 C 82.875 152.996094 82.933594 153.015625 82.992188 153.023438 C 82.839844 152.066406 82.679688 151.117188 82.464844 150.1875 C 82.296875 149.476562 82.101562 148.777344 81.847656 148.167969 L 81.648438 147.738281 L 81.460938 147.382812 L 81.300781 147.136719 L 81.21875 147.011719 L 81.21875 147.003906 L 81.207031 147.003906 L 81.171875 146.957031 L 80.875 146.5625 C 80.683594 146.28125 80.460938 146.113281 80.265625 145.886719 C 80.046875 145.734375 79.851562 145.539062 79.652344 145.464844 C 79.257812 145.253906 78.902344 145.203125 78.3125 145.246094 C 77.167969 145.332031 75.34375 146.015625 73.28125 145.332031 C 72.578125 145.078125 71.667969 144.722656 70.890625 143.960938 C 70.09375 143.199219 69.738281 142.089844 69.605469 141.351562 C 69.46875 140.566406 69.371094 140.101562 69.222656 139.890625 C 69.09375 139.675781 68.808594 139.488281 68.433594 139.328125 L 67.96875 139.199219 L 67.851562 139.160156 L 67.84375 139.160156 L 67.695312 139.132812 C 67.453125 139.09375 67.125 139.074219 66.832031 139.046875 C 66.230469 138.996094 65.632812 138.972656 65.0625 138.972656 C 64.769531 138.960938 64.488281 138.960938 64.226562 138.980469 C 63.910156 138.988281 63.777344 139.019531 63.617188 139.011719 C 63.554688 138.988281 63.355469 139.074219 63.234375 139.105469 L 63.175781 139.113281 C 63.15625 139.132812 63.148438 139.140625 63.132812 139.148438 C 63.066406 139.171875 63.007812 139.214844 62.960938 139.265625 C 62.914062 139.308594 62.851562 139.359375 62.804688 139.441406 C 62.558594 139.722656 62.324219 140.230469 61.886719 140.832031 C 61.753906 141.011719 61.601562 141.179688 61.453125 141.328125 L 61.144531 141.589844 L 61.109375 141.621094 L 61.085938 141.640625 C 61.109375 141.621094 60.890625 141.773438 60.898438 141.773438 L 60.796875 141.816406 L 60.582031 141.921875 L 60.144531 142.128906 C 57.738281 143.023438 55.539062 142.542969 53.878906 141.835938 C 52.214844 141.074219 51.003906 139.949219 50.363281 138.792969 C 49.710938 137.644531 49.71875 136.554688 49.777344 135.890625 C 49.9375 135.289062 50.066406 134.976562 50.179688 134.992188 C 50.28125 135 50.363281 135.328125 50.414062 135.945312 C 50.574219 136.488281 50.730469 137.296875 51.394531 138.117188 C 52.03125 138.9375 53.113281 139.703125 54.527344 140.183594 C 55.914062 140.632812 57.738281 140.785156 59.25 140.070312 L 59.515625 139.917969 L 59.644531 139.855469 L 59.652344 139.847656 L 59.925781 139.582031 C 59.941406 139.535156 59.972656 139.488281 60 139.441406 C 60.195312 139.160156 60.40625 138.625 60.835938 137.984375 C 60.9375 137.824219 61.066406 137.667969 61.226562 137.507812 C 61.378906 137.347656 61.539062 137.207031 61.734375 137.085938 L 62.023438 136.894531 L 62.101562 136.851562 C 62.109375 136.851562 62.109375 136.839844 62.109375 136.839844 C 62.125 136.832031 62.175781 136.808594 62.257812 136.773438 L 62.269531 136.773438 L 62.296875 136.765625 L 62.398438 136.726562 C 62.558594 136.679688 62.632812 136.632812 62.871094 136.585938 C 63.292969 136.488281 63.75 136.417969 64.039062 136.40625 C 64.371094 136.371094 64.699219 136.351562 65.011719 136.34375 C 65.671875 136.3125 66.316406 136.3125 66.984375 136.34375 C 67.332031 136.351562 67.648438 136.359375 68.035156 136.40625 L 68.324219 136.4375 L 68.359375 136.445312 L 68.535156 136.480469 L 68.59375 136.488281 L 68.707031 136.527344 L 69.1875 136.640625 C 70.027344 136.914062 70.976562 137.390625 71.59375 138.3125 C 71.914062 138.765625 72.070312 139.234375 72.203125 139.65625 C 72.3125 140.0625 72.378906 140.4375 72.457031 140.730469 C 72.59375 141.328125 72.726562 141.613281 72.972656 141.828125 C 73.214844 142.0625 73.652344 142.28125 74.3125 142.484375 C 74.40625 142.503906 74.488281 142.523438 74.582031 142.542969 L 74.949219 142.578125 C 75.210938 142.578125 75.472656 142.578125 75.777344 142.535156 C 76.378906 142.457031 77.082031 142.257812 78.003906 142.15625 C 78.902344 142.035156 80.113281 142.15625 81.078125 142.671875 C 82.054688 143.167969 82.746094 143.878906 83.308594 144.570312 L 83.730469 145.109375 L 83.777344 145.171875 L 83.855469 145.277344 L 83.933594 145.398438 L 84.09375 145.640625 C 84.21875 145.835938 84.347656 146.089844 84.472656 146.316406 L 84.761719 146.957031 C 85.117188 147.804688 85.351562 148.640625 85.546875 149.476562 C 86.289062 152.773438 86.449219 155.878906 87.199219 158.546875 C 87.5625 159.875 88.089844 161.046875 88.820312 161.839844 C 89.183594 162.222656 89.589844 162.523438 90.054688 162.742188 L 90.234375 162.8125 L 90.316406 162.851562 L 90.328125 162.863281 L 90.347656 162.863281 L 90.84375 163.011719 C 91.085938 163.039062 91.171875 163.066406 91.378906 163.050781 C 91.734375 163.03125 91.996094 162.921875 92.308594 162.636719 C 92.613281 162.355469 92.914062 161.914062 93.171875 161.417969 C 93.683594 160.410156 94.085938 159.1875 94.519531 158.042969 C 94.910156 156.960938 95.265625 155.734375 95.882812 154.578125 C 96.203125 154.003906 96.59375 153.410156 97.046875 152.972656 C 97.375 152.601562 97.949219 152.105469 98.339844 151.796875 C 99.203125 151.117188 99.851562 150.609375 100.253906 149.980469 C 100.488281 149.691406 100.601562 149.324219 100.761719 148.984375 C 100.863281 148.582031 100.957031 148.1875 101.058594 147.804688 C 101.292969 146.996094 101.386719 146.269531 101.488281 145.601562 C 101.601562 144.90625 101.707031 144.28125 101.800781 143.707031 C 101.96875 142.550781 102.183594 141.640625 102.378906 141.039062 C 102.558594 140.4375 102.707031 140.136719 102.8125 140.152344 C 102.921875 140.175781 102.980469 140.515625 103.007812 141.132812 C 103.007812 141.742188 103.019531 142.644531 103.027344 143.808594 C 103.027344 144.390625 103.027344 145.042969 102.988281 145.792969 C 102.960938 146.546875 102.9375 147.371094 102.785156 148.167969 C 102.757812 148.378906 102.726562 148.582031 102.691406 148.800781 L 102.640625 149.117188 L 102.625 149.289062 L 102.605469 149.359375 L 102.605469 149.410156 L 102.597656 149.425781 L 102.597656 149.4375 L 102.578125 149.511719 C 102.410156 150.011719 102.277344 150.527344 101.980469 151.015625 C 101.445312 152.042969 100.535156 152.828125 99.804688 153.496094 C 99.40625 153.859375 99.175781 154.070312 98.789062 154.539062 C 98.472656 154.886719 98.285156 155.253906 98.058594 155.683594 C 97.753906 156.351562 97.527344 157.121094 97.273438 157.988281 C 102.257812 159.253906 105.292969 149.503906 106.007812 145.996094 C 107.402344 139.207031 103.207031 135.390625 96.71875 134.097656 C 91.039062 132.957031 85.324219 132.796875 79.75 131.117188 C 71.507812 128.648438 62.828125 125.238281 54.292969 128.457031 C 47.058594 131.183594 38.914062 135.0625 32.617188 139.636719 C 26.449219 144.113281 21.40625 150.300781 19.550781 157.835938 C 15.707031 173.382812 26.523438 183.199219 39.089844 189.570312 C 38.988281 189 38.878906 188.460938 38.792969 187.765625 C 38.707031 187.042969 38.683594 186.339844 38.691406 185.691406 C 38.707031 184.375 38.726562 183.332031 38.445312 182.554688 C 38.15625 181.773438 37.574219 181.078125 36.792969 180.488281 C 35.238281 179.292969 33.382812 178.613281 31.59375 177.988281 C 29.832031 177.339844 28.03125 176.738281 26.738281 175.488281 C 25.4375 174.257812 25.023438 172.667969 24.976562 171.550781 C 24.941406 170.96875 25.015625 170.460938 25.03125 170.03125 C 25.074219 169.601562 25.191406 169.28125 25.261719 168.996094 C 25.410156 168.453125 25.539062 168.171875 25.652344 168.179688 C 25.765625 168.191406 25.839844 168.488281 25.894531 169.050781 C 25.921875 169.332031 25.90625 169.703125 25.972656 170.085938 C 26.054688 170.472656 26.074219 170.914062 26.199219 171.382812 C 26.410156 172.339844 26.886719 173.394531 27.894531 174.144531 C 28.875 174.933594 30.460938 175.347656 32.269531 175.851562 C 34.078125 176.351562 36.253906 176.941406 38.335938 178.359375 C 39.363281 179.058594 40.429688 180.101562 41.03125 181.550781 C 41.621094 183.011719 41.566406 184.472656 41.605469 185.652344 C 41.613281 186.882812 41.800781 187.835938 42.089844 189.203125 C 42.351562 190.511719 42.671875 191.730469 42.992188 193.035156 C 43.347656 194.304688 43.679688 195.640625 44.152344 196.824219 L 44.320312 197.292969 L 44.40625 197.519531 L 44.425781 197.574219 L 44.460938 197.648438 C 44.667969 198.042969 44.695312 198.042969 44.882812 198.289062 C 45.203125 198.695312 45.625 199.058594 46.074219 199.332031 C 46.855469 199.800781 47.714844 199.996094 48.425781 199.835938 C 48.804688 199.753906 49.082031 199.660156 49.476562 199.378906 C 49.804688 199.183594 49.746094 199.132812 49.878906 199.050781 C 49.972656 198.929688 50.082031 198.8125 50.148438 198.664062 C 50.46875 198.148438 50.515625 197.179688 50.515625 196.035156 C 50.515625 195.460938 50.53125 194.84375 50.609375 194.183594 C 50.695312 193.527344 50.863281 192.820312 51.152344 192.152344 L 51.183594 192.089844 L 51.207031 192.050781 C 51.519531 191.523438 51.828125 191 52.34375 190.492188 C 52.839844 190.003906 53.570312 189.523438 54.414062 189.382812 C 55.25 189.242188 56 189.429688 56.570312 189.65625 C 57.152344 189.878906 57.621094 190.140625 58.050781 190.394531 C 58.90625 190.914062 59.617188 191.390625 60.234375 191.617188 C 60.871094 191.855469 61.160156 191.835938 61.582031 191.601562 C 61.800781 191.488281 62.015625 191.261719 62.222656 191.027344 C 62.335938 190.914062 62.429688 190.753906 62.53125 190.632812 L 62.566406 190.578125 L 62.574219 190.570312 L 62.617188 190.5 L 62.753906 190.238281 C 62.828125 190.039062 62.945312 189.742188 63.027344 189.402344 C 63.113281 189.074219 63.175781 188.714844 63.242188 188.359375 C 63.371094 187.632812 63.503906 186.882812 63.765625 186.132812 C 64.019531 185.378906 64.445312 184.628906 65.023438 184.09375 C 65.304688 183.832031 65.625 183.59375 65.945312 183.4375 L 66.175781 183.316406 L 66.296875 183.257812 L 66.355469 183.230469 L 66.46875 183.183594 L 66.488281 183.183594 L 66.511719 183.171875 C 66.65625 183.136719 66.765625 183.097656 66.9375 183.070312 C 67.796875 182.910156 68.332031 183.070312 68.867188 183.199219 C 69.859375 183.492188 70.550781 183.78125 71.023438 183.730469 C 71.492188 183.6875 71.828125 183.332031 72.058594 183.097656 C 72.277344 182.84375 72.4375 182.714844 72.507812 182.742188 C 72.59375 182.769531 72.59375 182.96875 72.5 183.34375 C 72.378906 183.679688 72.144531 184.347656 71.273438 184.675781 C 70.414062 184.988281 69.457031 184.710938 68.578125 184.609375 C 68.359375 184.582031 68.144531 184.574219 67.925781 184.574219 C 67.835938 184.582031 67.730469 184.582031 67.628906 184.589844 C 67.542969 184.609375 67.488281 184.640625 67.410156 184.640625 C 67.332031 184.667969 67.222656 184.710938 67.113281 184.761719 C 67.113281 184.761719 67.113281 184.761719 67.09375 184.769531 L 67.085938 184.769531 L 67.054688 184.789062 L 66.984375 184.84375 L 66.839844 184.9375 C 66.644531 185.0625 66.488281 185.222656 66.34375 185.390625 C 65.75 186.058594 65.566406 187.195312 65.429688 188.679688 C 65.386719 189.050781 65.351562 189.449219 65.265625 189.871094 C 65.199219 190.285156 65.097656 190.738281 64.882812 191.28125 L 64.761719 191.5625 L 64.707031 191.695312 L 64.699219 191.710938 L 64.699219 191.722656 L 64.621094 191.84375 L 64.601562 191.878906 L 64.554688 191.957031 C 64.414062 192.152344 64.300781 192.363281 64.140625 192.558594 C 63.835938 192.953125 63.496094 193.359375 62.988281 193.703125 C 62.503906 194.050781 61.863281 194.324219 61.199219 194.378906 C 60.527344 194.457031 59.898438 194.324219 59.363281 194.144531 C 58.289062 193.789062 57.453125 193.246094 56.671875 192.832031 C 55.914062 192.386719 55.15625 192.132812 54.910156 192.242188 C 54.78125 192.277344 54.640625 192.351562 54.433594 192.566406 C 54.25 192.75 54.0625 193.078125 53.871094 193.402344 C 53.757812 193.679688 53.691406 193.984375 53.648438 194.335938 C 60.480469 194.484375 67.957031 195.867188 73.167969 200.65625 C 77.019531 204.207031 81.707031 210.820312 80.5625 216.480469 C 79.277344 222.847656 71.890625 224.359375 66.308594 224.539062 C 58.371094 224.800781 50.546875 223.4375 43.222656 220.355469 C 38.945312 218.550781 34.769531 216.160156 30.226562 215.078125 C 24.015625 213.601562 22.683594 217.21875 20.152344 221.8125 C 18.011719 225.695312 15.972656 229.535156 19.746094 233.359375 C 21.398438 235.042969 23.148438 236.582031 25.109375 237.886719 C 28.699219 240.28125 32.476562 242.507812 36.558594 243.925781 C 54.300781 250.101562 73.390625 246.808594 90.683594 240.660156 C 90.589844 240.3125 90.503906 239.964844 90.4375 239.621094 C 90.175781 238.261719 90.082031 237.023438 89.925781 235.878906 C 89.785156 234.738281 89.578125 233.667969 89.210938 232.957031 C 89.167969 232.839844 89.148438 232.832031 89.117188 232.757812 C 89.101562 232.710938 88.972656 232.570312 88.90625 232.464844 L 88.894531 232.464844 L 88.847656 232.425781 L 88.761719 232.34375 C 88.71875 232.28125 88.640625 232.230469 88.574219 232.195312 C 88.3125 231.996094 87.976562 231.882812 87.582031 231.816406 C 86.804688 231.675781 85.886719 231.78125 85.023438 231.953125 C 81.460938 232.671875 78.59375 234.132812 76.101562 234.054688 C 75.492188 234.035156 74.769531 233.78125 74.453125 233.253906 C 74.152344 232.746094 74.140625 232.316406 74.191406 231.996094 C 74.261719 231.359375 74.453125 231.132812 74.546875 231.125 C 74.667969 231.125 74.695312 231.480469 74.828125 231.96875 C 74.863281 232.214844 75.003906 232.503906 75.183594 232.664062 C 75.363281 232.824219 75.648438 232.871094 76.09375 232.824219 C 76.980469 232.710938 78.183594 232.214844 79.5625 231.628906 C 80.957031 231.046875 82.550781 230.3125 84.519531 229.757812 C 85.5 229.503906 86.597656 229.265625 87.902344 229.394531 C 88.546875 229.453125 89.257812 229.628906 89.914062 230.035156 C 90.074219 230.128906 90.242188 230.230469 90.382812 230.363281 L 90.722656 230.644531 L 90.777344 230.691406 L 90.871094 230.804688 C 90.964844 230.914062 91.03125 230.972656 91.164062 231.152344 C 91.285156 231.320312 91.433594 231.527344 91.511719 231.675781 C 92.222656 232.957031 92.453125 234.222656 92.679688 235.441406 C 92.894531 236.675781 93.039062 237.894531 93.300781 239.023438 C 93.421875 239.578125 93.578125 240.113281 93.789062 240.546875 C 93.992188 240.980469 94.238281 241.25 94.46875 241.402344 C 94.703125 241.539062 95.035156 241.617188 95.503906 241.589844 C 95.613281 241.589844 95.738281 241.570312 95.867188 241.550781 L 96.050781 241.511719 L 96.0625 241.511719 L 96.136719 241.496094 L 97.113281 241.191406 C 97.265625 241.074219 97.414062 240.980469 97.582031 240.902344 C 97.753906 240.734375 97.929688 240.59375 98.109375 240.433594 C 98.238281 240.226562 98.398438 240.050781 98.539062 239.832031 C 98.652344 239.578125 98.789062 239.359375 98.894531 239.097656 C 99.304688 238.039062 99.492188 236.730469 99.558594 235.359375 C 99.625 233.980469 99.589844 232.570312 99.566406 231.132812 C 99.566406 230.40625 99.550781 229.6875 99.589844 228.921875 C 99.597656 228.550781 99.636719 228.152344 99.683594 227.75 L 99.710938 227.460938 L 99.785156 227.105469 L 99.898438 226.597656 L 100 226.089844 C 100.066406 225.871094 100.152344 225.636719 100.234375 225.410156 C 100.328125 225.1875 100.394531 224.960938 100.515625 224.734375 C 100.65625 224.511719 100.804688 224.285156 100.964844 224.066406 C 101.675781 223.1875 102.691406 222.800781 103.160156 222.585938 C 103.460938 222.441406 103.664062 222.320312 103.917969 222.199219 L 104.582031 221.75 L 104.65625 221.691406 L 104.664062 221.691406 L 104.796875 221.558594 L 105.144531 221.21875 C 105.445312 220.964844 105.4375 220.855469 105.570312 220.710938 C 105.699219 220.59375 105.699219 220.394531 105.800781 220.253906 C 105.839844 220.0625 105.882812 219.917969 105.894531 219.679688 C 105.925781 219.242188 105.867188 218.675781 105.808594 218.074219 C 105.746094 217.472656 105.714844 216.835938 105.691406 216.210938 C 105.652344 215.652344 105.621094 215.09375 105.585938 214.539062 C 105.539062 213.398438 105.40625 212.382812 105.324219 211.363281 C 105.191406 210.351562 105.0625 209.386719 104.910156 208.464844 C 104.246094 204.792969 103.242188 201.921875 102.386719 199.988281 C 101.558594 198.054688 101.046875 196.964844 101.257812 196.832031 C 101.414062 196.71875 102.265625 197.582031 103.488281 199.414062 C 104.707031 201.238281 106.101562 204.160156 107.09375 207.992188 C 107.328125 208.941406 107.535156 209.953125 107.742188 211.015625 C 107.890625 212.070312 108.097656 213.21875 108.203125 214.328125 C 108.265625 214.898438 108.320312 215.480469 108.390625 216.082031 C 108.445312 216.625 108.492188 217.171875 108.578125 217.765625 C 108.652344 218.347656 108.753906 219.003906 108.746094 219.792969 C 108.746094 220.179688 108.667969 220.644531 108.566406 221.058594 C 108.398438 221.472656 108.296875 221.9375 108.003906 222.300781 C 107.761719 222.667969 107.441406 223.128906 107.246094 223.296875 L 106.910156 223.636719 L 106.738281 223.8125 L 106.691406 223.859375 L 106.550781 223.980469 L 106.523438 224.011719 L 106.410156 224.097656 C 106.09375 224.320312 105.789062 224.554688 105.464844 224.765625 C 105.136719 224.953125 104.78125 225.164062 104.472656 225.304688 C 103.757812 225.636719 103.488281 225.8125 103.34375 225.992188 C 103.316406 226.058594 103.28125 226.117188 103.234375 226.160156 C 103.199219 226.238281 103.175781 226.351562 103.140625 226.445312 L 103.027344 226.734375 L 102.820312 227.75 L 102.800781 227.882812 L 102.792969 227.917969 L 102.777344 228.125 C 102.742188 228.417969 102.71875 228.707031 102.71875 229.046875 C 102.691406 229.6875 102.707031 230.382812 102.71875 231.085938 C 102.726562 231.792969 102.742188 232.511719 102.757812 233.261719 C 107.882812 228.9375 110.167969 222.984375 110.214844 216.09375 C 110.242188 213.050781 110.058594 210.011719 109.773438 206.980469 " fill-opacity="1" fill-rule="nonzero"/></g><g fill="#000000" fill-opacity="1"><g transform="translate(110.24003, 215.275927)"><g><path d="M 37.09375 -45.875 C 37.09375 -46.71875 37.164062 -47.296875 37.3125 -47.609375 C 37.46875 -47.921875 37.78125 -48.132812 38.25 -48.25 L 50.234375 -51.140625 C 50.535156 -51.234375 50.847656 -51.28125 51.171875 -51.28125 C 51.492188 -51.28125 51.710938 -51.179688 51.828125 -50.984375 C 51.953125 -50.785156 52.015625 -50.382812 52.015625 -49.78125 L 51.59375 -44.3125 C 51.476562 -42.707031 51.347656 -41.113281 51.203125 -39.53125 C 51.066406 -37.957031 50.859375 -36.578125 50.578125 -35.390625 L 49.953125 -30.453125 C 49.765625 -28.984375 49.585938 -27.394531 49.421875 -25.6875 C 49.265625 -23.976562 49.09375 -22.066406 48.90625 -19.953125 L 47.265625 -2.78125 C 47.242188 -2.570312 47.195312 -2.363281 47.125 -2.15625 C 47.0625 -1.945312 46.914062 -1.796875 46.6875 -1.703125 C 46.519531 -1.640625 46.140625 -1.488281 45.546875 -1.25 C 44.953125 -1.019531 44.25 -0.753906 43.4375 -0.453125 C 42.625 -0.148438 41.753906 0.164062 40.828125 0.5 C 39.898438 0.84375 39.015625 1.148438 38.171875 1.421875 C 37.335938 1.703125 36.59375 1.9375 35.9375 2.125 C 35.289062 2.3125 34.851562 2.40625 34.625 2.40625 C 34.300781 2.40625 34.015625 2.316406 33.765625 2.140625 C 33.523438 1.960938 33.40625 1.632812 33.40625 1.15625 C 33.40625 -1.65625 33.566406 -4.53125 33.890625 -7.46875 C 34.222656 -10.40625 34.515625 -13.328125 34.765625 -16.234375 C 34.804688 -16.554688 34.820312 -16.859375 34.8125 -17.140625 C 34.800781 -17.421875 34.820312 -17.722656 34.875 -18.046875 L 22.125 -18.046875 L 20.6875 -2.78125 C 20.664062 -2.570312 20.625 -2.367188 20.5625 -2.171875 C 20.507812 -1.972656 20.351562 -1.816406 20.09375 -1.703125 C 20 -1.660156 19.539062 -1.492188 18.71875 -1.203125 C 17.894531 -0.910156 16.941406 -0.570312 15.859375 -0.1875 C 14.785156 0.195312 13.71875 0.578125 12.65625 0.953125 C 11.601562 1.335938 10.796875 1.632812 10.234375 1.84375 C 9.960938 1.957031 9.625 2.078125 9.21875 2.203125 C 8.8125 2.335938 8.410156 2.40625 8.015625 2.40625 C 7.691406 2.40625 7.40625 2.3125 7.15625 2.125 C 6.914062 1.9375 6.796875 1.597656 6.796875 1.109375 C 6.796875 -0.00390625 6.832031 -1.273438 6.90625 -2.703125 C 6.988281 -4.128906 7.085938 -5.625 7.203125 -7.1875 C 7.328125 -8.757812 7.46875 -10.367188 7.625 -12.015625 C 7.789062 -13.660156 7.953125 -15.285156 8.109375 -16.890625 L 8.1875 -17.90625 C 6.300781 -17.90625 4.9375 -17.957031 4.09375 -18.0625 C 3.25 -18.164062 2.828125 -18.4375 2.828125 -18.875 C 2.828125 -19.175781 3 -19.570312 3.34375 -20.0625 C 3.8125 -20.71875 4.351562 -21.503906 4.96875 -22.421875 C 5.582031 -23.335938 6.171875 -24.238281 6.734375 -25.125 C 7.304688 -26.019531 7.816406 -26.820312 8.265625 -27.53125 C 8.722656 -28.238281 9.019531 -28.695312 9.15625 -28.90625 L 9.96875 -37.3125 C 9.96875 -37.351562 9.988281 -37.695312 10.03125 -38.34375 C 10.082031 -39 10.140625 -39.773438 10.203125 -40.671875 C 10.273438 -41.566406 10.351562 -42.488281 10.4375 -43.4375 C 10.519531 -44.394531 10.59375 -45.207031 10.65625 -45.875 C 10.707031 -46.6875 10.769531 -47.253906 10.84375 -47.578125 C 10.925781 -47.910156 11.203125 -48.132812 11.671875 -48.25 L 23.515625 -51.140625 C 23.816406 -51.234375 24.128906 -51.28125 24.453125 -51.28125 C 24.773438 -51.28125 24.992188 -51.179688 25.109375 -50.984375 C 25.234375 -50.785156 25.296875 -50.382812 25.296875 -49.78125 C 25.128906 -48.101562 25 -46.578125 24.90625 -45.203125 C 24.8125 -43.835938 24.710938 -42.5625 24.609375 -41.375 C 24.503906 -40.195312 24.394531 -39.070312 24.28125 -38 C 24.164062 -36.9375 24.003906 -35.847656 23.796875 -34.734375 L 23.09375 -29.328125 L 35.734375 -29.46875 C 35.953125 -32.5625 36.1875 -35.1875 36.4375 -37.34375 C 36.695312 -39.5 36.859375 -41.207031 36.921875 -42.46875 C 36.992188 -43.644531 37.039062 -44.488281 37.0625 -45 C 37.082031 -45.519531 37.09375 -45.8125 37.09375 -45.875 Z M 37.09375 -45.875 "/></g></g></g><g fill="#000000" fill-opacity="1"><g transform="translate(162.136868, 215.275927)"><g><path d="M 19.546875 -23.765625 C 19.546875 -22.085938 19.722656 -20.40625 20.078125 -18.71875 C 20.441406 -17.039062 21.039062 -15.523438 21.875 -14.171875 C 22.707031 -12.828125 23.804688 -11.738281 25.171875 -10.90625 C 26.546875 -10.070312 28.242188 -9.65625 30.265625 -9.65625 C 31.828125 -9.738281 33.191406 -10.050781 34.359375 -10.59375 C 35.535156 -11.144531 36.546875 -11.851562 37.390625 -12.71875 C 38.242188 -13.59375 38.945312 -14.59375 39.5 -15.71875 C 40.0625 -16.851562 40.503906 -18.039062 40.828125 -19.28125 C 41.148438 -20.519531 41.375 -21.789062 41.5 -23.09375 C 41.632812 -24.394531 41.703125 -25.648438 41.703125 -26.859375 C 41.703125 -28.503906 41.476562 -30.097656 41.03125 -31.640625 C 40.59375 -33.191406 39.929688 -34.554688 39.046875 -35.734375 C 38.171875 -36.921875 37.078125 -37.875 35.765625 -38.59375 C 34.453125 -39.3125 32.921875 -39.671875 31.171875 -39.671875 C 29.804688 -39.671875 28.570312 -39.414062 27.46875 -38.90625 C 26.363281 -38.394531 25.378906 -37.71875 24.515625 -36.875 C 23.660156 -36.03125 22.925781 -35.054688 22.3125 -33.953125 C 21.695312 -32.847656 21.1875 -31.707031 20.78125 -30.53125 C 20.375 -29.363281 20.070312 -28.191406 19.875 -27.015625 C 19.675781 -25.835938 19.566406 -24.753906 19.546875 -23.765625 Z M 26.328125 1.8125 C 22.847656 1.8125 19.738281 1.160156 17 -0.140625 C 14.257812 -1.441406 11.941406 -3.203125 10.046875 -5.421875 C 8.160156 -7.640625 6.710938 -10.203125 5.703125 -13.109375 C 4.691406 -16.023438 4.1875 -19.109375 4.1875 -22.359375 C 4.1875 -26.003906 4.703125 -29.363281 5.734375 -32.4375 C 6.765625 -35.519531 8.207031 -38.25 10.0625 -40.625 C 11.925781 -43.007812 14.140625 -45.019531 16.703125 -46.65625 C 19.265625 -48.300781 22.082031 -49.515625 25.15625 -50.296875 C 25.425781 -50.296875 25.632812 -50.515625 25.78125 -50.953125 C 25.9375 -51.398438 26.070312 -51.890625 26.1875 -52.421875 C 26.3125 -52.960938 26.453125 -53.453125 26.609375 -53.890625 C 26.773438 -54.328125 27.007812 -54.546875 27.3125 -54.546875 C 31.8125 -54.085938 35.863281 -53.296875 39.46875 -52.171875 C 43.070312 -51.046875 46.125 -49.4375 48.625 -47.34375 C 51.132812 -45.25 53.054688 -42.601562 54.390625 -39.40625 C 55.734375 -36.21875 56.40625 -32.328125 56.40625 -27.734375 C 56.40625 -24.785156 56.039062 -22.007812 55.3125 -19.40625 C 54.59375 -16.800781 53.582031 -14.398438 52.28125 -12.203125 C 50.988281 -10.015625 49.429688 -8.054688 47.609375 -6.328125 C 45.785156 -4.597656 43.757812 -3.128906 41.53125 -1.921875 C 39.300781 -0.710938 36.898438 0.207031 34.328125 0.84375 C 31.765625 1.488281 29.097656 1.8125 26.328125 1.8125 Z M 26.328125 1.8125 "/></g></g></g><g fill="#000000" fill-opacity="1"><g transform="translate(218.422286, 215.275927)"><g><path d="M 19.546875 -23.765625 C 19.546875 -22.085938 19.722656 -20.40625 20.078125 -18.71875 C 20.441406 -17.039062 21.039062 -15.523438 21.875 -14.171875 C 22.707031 -12.828125 23.804688 -11.738281 25.171875 -10.90625 C 26.546875 -10.070312 28.242188 -9.65625 30.265625 -9.65625 C 31.828125 -9.738281 33.191406 -10.050781 34.359375 -10.59375 C 35.535156 -11.144531 36.546875 -11.851562 37.390625 -12.71875 C 38.242188 -13.59375 38.945312 -14.59375 39.5 -15.71875 C 40.0625 -16.851562 40.503906 -18.039062 40.828125 -19.28125 C 41.148438 -20.519531 41.375 -21.789062 41.5 -23.09375 C 41.632812 -24.394531 41.703125 -25.648438 41.703125 -26.859375 C 41.703125 -28.503906 41.476562 -30.097656 41.03125 -31.640625 C 40.59375 -33.191406 39.929688 -34.554688 39.046875 -35.734375 C 38.171875 -36.921875 37.078125 -37.875 35.765625 -38.59375 C 34.453125 -39.3125 32.921875 -39.671875 31.171875 -39.671875 C 29.804688 -39.671875 28.570312 -39.414062 27.46875 -38.90625 C 26.363281 -38.394531 25.378906 -37.71875 24.515625 -36.875 C 23.660156 -36.03125 22.925781 -35.054688 22.3125 -33.953125 C 21.695312 -32.847656 21.1875 -31.707031 20.78125 -30.53125 C 20.375 -29.363281 20.070312 -28.191406 19.875 -27.015625 C 19.675781 -25.835938 19.566406 -24.753906 19.546875 -23.765625 Z M 26.328125 1.8125 C 22.847656 1.8125 19.738281 1.160156 17 -0.140625 C 14.257812 -1.441406 11.941406 -3.203125 10.046875 -5.421875 C 8.160156 -7.640625 6.710938 -10.203125 5.703125 -13.109375 C 4.691406 -16.023438 4.1875 -19.109375 4.1875 -22.359375 C 4.1875 -26.003906 4.703125 -29.363281 5.734375 -32.4375 C 6.765625 -35.519531 8.207031 -38.25 10.0625 -40.625 C 11.925781 -43.007812 14.140625 -45.019531 16.703125 -46.65625 C 19.265625 -48.300781 22.082031 -49.515625 25.15625 -50.296875 C 25.425781 -50.296875 25.632812 -50.515625 25.78125 -50.953125 C 25.9375 -51.398438 26.070312 -51.890625 26.1875 -52.421875 C 26.3125 -52.960938 26.453125 -53.453125 26.609375 -53.890625 C 26.773438 -54.328125 27.007812 -54.546875 27.3125 -54.546875 C 31.8125 -54.085938 35.863281 -53.296875 39.46875 -52.171875 C 43.070312 -51.046875 46.125 -49.4375 48.625 -47.34375 C 51.132812 -45.25 53.054688 -42.601562 54.390625 -39.40625 C 55.734375 -36.21875 56.40625 -32.328125 56.40625 -27.734375 C 56.40625 -24.785156 56.039062 -22.007812 55.3125 -19.40625 C 54.59375 -16.800781 53.582031 -14.398438 52.28125 -12.203125 C 50.988281 -10.015625 49.429688 -8.054688 47.609375 -6.328125 C 45.785156 -4.597656 43.757812 -3.128906 41.53125 -1.921875 C 39.300781 -0.710938 36.898438 0.207031 34.328125 0.84375 C 31.765625 1.488281 29.097656 1.8125 26.328125 1.8125 Z M 26.328125 1.8125 "/></g></g></g><g fill="#000000" fill-opacity="1"><g transform="translate(274.70773, 215.275927)"><g><path d="M 7.140625 0 C 6.859375 0 6.578125 -0.0234375 6.296875 -0.078125 C 6.023438 -0.140625 5.769531 -0.242188 5.53125 -0.390625 C 5.300781 -0.546875 5.109375 -0.753906 4.953125 -1.015625 C 4.804688 -1.285156 4.734375 -1.644531 4.734375 -2.09375 C 4.734375 -2.132812 4.742188 -2.175781 4.765625 -2.21875 C 4.796875 -2.269531 4.8125 -2.320312 4.8125 -2.375 L 22.953125 -34.203125 C 22.953125 -34.273438 22.703125 -34.335938 22.203125 -34.390625 C 21.703125 -34.453125 21.0625 -34.5 20.28125 -34.53125 C 19.507812 -34.570312 18.660156 -34.609375 17.734375 -34.640625 C 16.804688 -34.679688 15.914062 -34.707031 15.0625 -34.71875 C 14.21875 -34.726562 13.460938 -34.738281 12.796875 -34.75 C 12.140625 -34.757812 11.695312 -34.765625 11.46875 -34.765625 C 10.207031 -34.765625 9.03125 -34.742188 7.9375 -34.703125 C 6.851562 -34.671875 5.71875 -34.65625 4.53125 -34.65625 C 4.269531 -34.65625 4.046875 -34.742188 3.859375 -34.921875 C 3.679688 -35.097656 3.59375 -35.300781 3.59375 -35.53125 C 3.613281 -35.550781 3.625 -35.578125 3.625 -35.609375 C 3.625 -35.671875 3.632812 -35.738281 3.65625 -35.8125 L 8.15625 -46.578125 C 8.363281 -47.085938 8.679688 -47.5 9.109375 -47.8125 C 9.535156 -48.125 10.019531 -48.367188 10.5625 -48.546875 C 11.113281 -48.722656 11.703125 -48.835938 12.328125 -48.890625 C 12.953125 -48.953125 13.566406 -48.984375 14.171875 -48.984375 C 16.703125 -48.984375 19.195312 -48.929688 21.65625 -48.828125 C 24.125 -48.722656 26.582031 -48.609375 29.03125 -48.484375 C 31.476562 -48.367188 33.925781 -48.257812 36.375 -48.15625 C 38.832031 -48.050781 41.316406 -48 43.828125 -48 L 43.828125 -46.578125 L 26.859375 -14.875 C 26.859375 -14.832031 26.851562 -14.800781 26.84375 -14.78125 C 26.832031 -14.769531 26.828125 -14.742188 26.828125 -14.703125 C 26.828125 -14.441406 26.941406 -14.296875 27.171875 -14.265625 C 27.398438 -14.234375 27.609375 -14.21875 27.796875 -14.21875 L 34.703125 -14.21875 C 36.085938 -14.21875 37.429688 -14.300781 38.734375 -14.46875 C 40.035156 -14.644531 41.382812 -14.734375 42.78125 -14.734375 C 43.0625 -14.734375 43.316406 -14.644531 43.546875 -14.46875 C 43.773438 -14.300781 43.890625 -14.085938 43.890625 -13.828125 C 43.890625 -13.847656 43.867188 -13.742188 43.828125 -13.515625 L 38.21875 -2.375 C 38.03125 -1.8125 37.6875 -1.367188 37.1875 -1.046875 C 36.6875 -0.722656 36.082031 -0.476562 35.375 -0.3125 C 34.664062 -0.144531 33.878906 -0.0390625 33.015625 0 C 32.160156 0.0390625 31.28125 0.0625 30.375 0.0625 C 26.726562 0.0625 23.03125 0.0507812 19.28125 0.03125 C 15.53125 0.0078125 11.484375 0 7.140625 0 Z M 7.140625 0 "/></g></g></g><g fill="#000000" fill-opacity="1"><g transform="translate(318.210511, 215.275927)"><g><path d="M 35.640625 -28.90625 C 35.546875 -28.582031 35.367188 -28.125 35.109375 -27.53125 C 34.859375 -26.945312 34.5625 -26.28125 34.21875 -25.53125 C 33.882812 -24.789062 33.523438 -23.992188 33.140625 -23.140625 C 32.765625 -22.296875 32.390625 -21.445312 32.015625 -20.59375 C 31.878906 -20.257812 31.75 -20.015625 31.625 -19.859375 C 31.507812 -19.710938 31.320312 -19.601562 31.0625 -19.53125 C 30.8125 -19.46875 30.457031 -19.429688 30 -19.421875 C 29.550781 -19.410156 28.921875 -19.394531 28.109375 -19.375 L 23.265625 -19.265625 L 22.296875 -8.609375 L 40.171875 -8.609375 L 40.171875 -7.25 C 40.117188 -7.195312 39.914062 -6.882812 39.5625 -6.3125 C 39.21875 -5.75 38.8125 -5.070312 38.34375 -4.28125 C 37.882812 -3.488281 37.398438 -2.691406 36.890625 -1.890625 C 36.378906 -1.097656 35.953125 -0.457031 35.609375 0.03125 C 35.367188 0.445312 35.097656 0.773438 34.796875 1.015625 C 34.492188 1.265625 34.160156 1.445312 33.796875 1.5625 C 33.441406 1.675781 33.050781 1.742188 32.625 1.765625 C 32.195312 1.796875 31.726562 1.8125 31.21875 1.8125 C 29.125 1.8125 26.941406 1.765625 24.671875 1.671875 C 22.410156 1.578125 20.15625 1.457031 17.90625 1.3125 C 15.65625 1.175781 13.453125 1.019531 11.296875 0.84375 C 9.148438 0.675781 7.160156 0.5 5.328125 0.3125 C 5.171875 0.289062 5.023438 0.195312 4.890625 0.03125 C 4.765625 -0.125 4.703125 -0.304688 4.703125 -0.515625 C 4.609375 -0.515625 4.671875 -0.710938 4.890625 -1.109375 C 5.109375 -1.503906 5.414062 -2.015625 5.8125 -2.640625 C 6.207031 -3.273438 6.644531 -3.988281 7.125 -4.78125 C 7.601562 -5.582031 8.0625 -6.394531 8.5 -7.21875 L 9.0625 -15.046875 C 9.15625 -16.367188 9.226562 -17.351562 9.28125 -18 C 9.34375 -18.65625 9.375 -19.007812 9.375 -19.0625 C 7.976562 -19.082031 6.9375 -19.148438 6.25 -19.265625 C 5.5625 -19.378906 5.21875 -19.632812 5.21875 -20.03125 C 5.21875 -20.21875 5.382812 -20.566406 5.71875 -21.078125 C 6.0625 -21.585938 6.476562 -22.171875 6.96875 -22.828125 C 7.457031 -23.492188 7.972656 -24.1875 8.515625 -24.90625 C 9.066406 -25.625 9.550781 -26.285156 9.96875 -26.890625 L 10.828125 -38.734375 L 10.734375 -38.734375 C 10.222656 -38.710938 9.753906 -38.695312 9.328125 -38.6875 C 8.910156 -38.675781 8.53125 -38.671875 8.1875 -38.671875 C 7.070312 -38.671875 6.273438 -38.734375 5.796875 -38.859375 C 5.328125 -38.984375 5.09375 -39.222656 5.09375 -39.578125 C 5.09375 -39.734375 5.226562 -40.066406 5.5 -40.578125 C 5.78125 -41.085938 6.128906 -41.671875 6.546875 -42.328125 C 6.960938 -42.992188 7.398438 -43.691406 7.859375 -44.421875 C 8.328125 -45.160156 8.75 -45.84375 9.125 -46.46875 L 11.21875 -50.03125 L 25.78125 -50.03125 L 42.953125 -51.28125 C 42.972656 -51.28125 43.035156 -51.273438 43.140625 -51.265625 C 43.242188 -51.253906 43.351562 -51.21875 43.46875 -51.15625 C 43.59375 -51.09375 43.707031 -50.992188 43.8125 -50.859375 C 43.914062 -50.722656 43.96875 -50.523438 43.96875 -50.265625 L 43.4375 -48.453125 C 43.28125 -47.941406 43.082031 -47.398438 42.84375 -46.828125 C 42.613281 -46.265625 42.359375 -45.679688 42.078125 -45.078125 L 40.546875 -41.03125 C 40.390625 -40.632812 40.203125 -40.332031 39.984375 -40.125 C 39.773438 -39.914062 39.335938 -39.800781 38.671875 -39.78125 C 36.898438 -39.738281 34.925781 -39.664062 32.75 -39.5625 C 30.582031 -39.457031 28.097656 -39.359375 25.296875 -39.265625 C 25.203125 -38.929688 25.15625 -38.664062 25.15625 -38.46875 C 25.15625 -38.28125 25.128906 -37.90625 25.078125 -37.34375 L 24.90625 -35.734375 C 24.863281 -34.992188 24.796875 -34.191406 24.703125 -33.328125 C 24.609375 -32.472656 24.488281 -31.421875 24.34375 -30.171875 C 25.53125 -30.210938 26.6875 -30.253906 27.8125 -30.296875 C 28.9375 -30.347656 29.960938 -30.390625 30.890625 -30.421875 C 31.828125 -30.460938 32.632812 -30.492188 33.3125 -30.515625 C 34 -30.535156 34.484375 -30.546875 34.765625 -30.546875 C 34.953125 -30.546875 35.160156 -30.476562 35.390625 -30.34375 C 35.617188 -30.207031 35.734375 -29.941406 35.734375 -29.546875 C 35.734375 -29.359375 35.703125 -29.144531 35.640625 -28.90625 Z M 35.640625 -28.90625 "/></g></g></g><g clip-path="url(#id2)"><path fill="#000000" d="M 241.527344 159.617188 C 227.464844 162.207031 225.367188 164.304688 222.777344 178.367188 C 220.191406 164.304688 218.089844 162.207031 204.03125 159.617188 C 218.089844 157.027344 220.191406 154.929688 222.777344 140.867188 C 225.367188 154.929688 227.464844 157.027344 241.527344 159.617188 Z M 241.527344 159.617188 " fill-opacity="1" fill-rule="nonzero"/></g><g clip-path="url(#id3)"><path fill="#000000" d="M 198.460938 189.445312 C 198.460938 192.140625 196.28125 194.320312 193.589844 194.320312 C 192.078125 194.320312 190.734375 193.636719 189.839844 192.5625 C 189.171875 191.757812 188.757812 190.738281 188.71875 189.621094 C 188.714844 189.5625 188.714844 189.503906 188.714844 189.445312 C 188.714844 186.753906 190.894531 184.570312 193.589844 184.570312 C 194.140625 184.570312 194.671875 184.664062 195.167969 184.832031 C 196.195312 185.183594 197.066406 185.871094 197.65625 186.757812 C 198.164062 187.53125 198.460938 188.453125 198.460938 189.445312 " fill-opacity="1" fill-rule="nonzero"/></g><g clip-path="url(#id4)"><path fill="#000000" d="M 254.800781 189.445312 C 254.800781 192.140625 252.617188 194.320312 249.925781 194.320312 C 248.417969 194.320312 247.070312 193.636719 246.175781 192.5625 C 245.507812 191.757812 245.09375 190.738281 245.054688 189.621094 C 245.054688 189.5625 245.050781 189.503906 245.050781 189.445312 C 245.050781 186.753906 247.234375 184.570312 249.925781 184.570312 C 250.480469 184.570312 251.007812 184.664062 251.503906 184.832031 C 252.53125 185.183594 253.402344 185.871094 253.992188 186.757812 C 254.5 187.53125 254.800781 188.453125 254.800781 189.445312 " fill-opacity="1" fill-rule="nonzero"/></g></svg>